<svg width="326" height="81" viewBox="0 0 326 81" fill="none" xmlns="http://www.w3.org/2000/svg">
<path d="M28.76 55.78C26.8 55.78 24.98 55.5 23.3 54.94C21.66 54.34 20.34 53.52 19.34 52.48C18.34 51.44 17.84 50.22 17.84 48.82C17.84 47.9 18.06 47.1 18.5 46.42C18.94 45.7 19.54 45.34 20.3 45.34C20.78 45.34 21.28 45.52 21.8 45.88C22.8 46.76 24.08 47.54 25.64 48.22C27.24 48.86 28.94 49.18 30.74 49.18C33.1 49.18 35.02 48.72 36.5 47.8C38.02 46.84 38.78 45.56 38.78 43.96C38.78 42.44 38.08 41.34 36.68 40.66C35.28 39.98 33.34 39.34 30.86 38.74C29.02 38.3 27.24 37.74 25.52 37.06C23.84 36.38 22.44 35.44 21.32 34.24C20.24 33 19.7 31.36 19.7 29.32C19.7 27.76 20.04 26.22 20.72 24.7C21.4 23.14 22.4 21.72 23.72 20.44C25.04 19.16 26.64 18.14 28.52 17.38C30.4 16.58 32.52 16.18 34.88 16.18C36.64 16.18 38.24 16.38 39.68 16.78C41.16 17.18 42.32 17.74 43.16 18.46C44.04 19.18 44.48 20.06 44.48 21.1C44.48 21.9 44.26 22.6 43.82 23.2C43.38 23.8 42.86 24.28 42.26 24.64C41.66 24.96 41.14 25.12 40.7 25.12C40.3 25.12 39.76 24.94 39.08 24.58C37.96 23.98 36.7 23.52 35.3 23.2C33.94 22.84 32.74 22.66 31.7 22.66C29.74 22.66 28.14 23.1 26.9 23.98C25.7 24.82 25.1 25.82 25.1 26.98C25.1 28.26 25.86 29.34 27.38 30.22C28.94 31.06 31.72 31.96 35.72 32.92C38.44 33.64 40.56 34.64 42.08 35.92C43.6 37.16 44.36 39.14 44.36 41.86C44.36 44.3 43.7 46.58 42.38 48.7C41.1 50.82 39.28 52.54 36.92 53.86C34.6 55.14 31.88 55.78 28.76 55.78ZM52.1684 55.66C50.6084 55.66 49.8284 55.1 49.8284 53.98C49.8284 53.66 49.8884 53.24 50.0084 52.72C50.8484 48.52 51.4484 44.26 51.8084 39.94C51.2084 40.1 50.7284 40.18 50.3684 40.18C49.9684 40.18 49.7684 39.82 49.7684 39.1C49.7684 38.14 50.0084 37.06 50.4884 35.86C50.9684 34.66 51.5284 33.78 52.1684 33.22C52.1684 31.1 52.1084 29.34 51.9884 27.94C51.9084 26.5 51.7284 25.24 51.4484 24.16C51.1684 23.08 50.7284 22.04 50.1284 21.04C49.7684 20.48 49.5884 20.06 49.5884 19.78C49.5884 19.26 49.8484 18.76 50.3684 18.28C50.9284 17.76 51.5884 17.32 52.3484 16.96C53.1484 16.6 53.8884 16.42 54.5684 16.42C55.8484 16.42 56.6884 17 57.0884 18.16C57.5284 19.28 57.7484 20.76 57.7484 22.6C57.7084 23.48 57.6284 24.74 57.5084 26.38C57.3884 28.02 57.2084 30.04 56.9684 32.44C59.4884 32.28 61.9484 32.16 64.3484 32.08C66.7484 32 69.0484 31.96 71.2484 31.96H75.6884V30.28C75.6884 26.8 75.2284 23.74 74.3084 21.1C74.0284 20.42 73.8884 19.94 73.8884 19.66C73.8884 18.86 74.3884 18.12 75.3884 17.44C76.4284 16.76 77.5084 16.42 78.6284 16.42C79.8684 16.42 80.6884 16.88 81.0884 17.8C81.5284 18.68 81.7484 19.94 81.7484 21.58C81.7484 22.66 81.6484 24.12 81.4484 25.96C81.2484 27.8 80.9684 30.04 80.6084 32.68C80.2484 35.48 79.9684 37.8 79.7684 39.64C79.5684 41.44 79.4684 43.04 79.4684 44.44C79.4684 47.08 80.1484 49.04 81.5084 50.32C82.0284 50.92 82.2884 51.52 82.2884 52.12C82.2884 53.04 81.7484 53.86 80.6684 54.58C79.5884 55.26 78.2884 55.6 76.7684 55.6C75.8084 55.6 75.0484 55.34 74.4884 54.82C73.9284 54.3 73.6484 53.18 73.6484 51.46C73.6484 50.86 73.7084 49.96 73.8284 48.76C73.9484 47.56 74.1484 46.04 74.4284 44.2C74.5884 43.04 74.7284 41.92 74.8484 40.84C75.0084 39.76 75.1284 38.74 75.2084 37.78C74.9284 38.14 74.6484 38.42 74.3684 38.62C74.1284 38.82 73.7884 38.9 73.3484 38.86C71.9084 38.78 70.4684 38.72 69.0284 38.68C67.6284 38.6 66.2284 38.56 64.8284 38.56C61.9084 38.56 59.1284 38.74 56.4884 39.1C56.4484 39.38 56.4084 39.86 56.3684 40.54C56.3684 41.18 56.3684 41.72 56.3684 42.16C56.3684 43.88 56.4484 45.66 56.6084 47.5C56.7684 49.34 56.9284 50.98 57.0884 52.42C57.2084 53.42 56.7284 54.22 55.6484 54.82C54.5684 55.38 53.4084 55.66 52.1684 55.66ZM101.352 55.78C97.2316 55.78 93.9316 54.58 91.4516 52.18C89.0116 49.74 87.7916 46.16 87.7916 41.44C87.7916 39.32 88.0716 37.12 88.6316 34.84C89.2316 32.56 90.2116 30.3 91.5716 28.06C90.8116 28.74 90.0916 29.08 89.4116 29.08C88.2516 29.08 87.6716 28.16 87.6716 26.32C87.6716 25 87.9516 23.94 88.5116 23.14C89.0716 22.34 89.6116 21.7 90.1316 21.22C91.0116 20.46 92.1316 19.7 93.4916 18.94C94.8516 18.14 96.4516 17.48 98.2916 16.96C100.132 16.44 102.192 16.18 104.472 16.18C109.832 16.18 113.852 17.7 116.532 20.74C119.252 23.74 120.612 27.92 120.612 33.28C120.612 36.44 120.152 39.38 119.232 42.1C118.312 44.82 116.992 47.2 115.272 49.24C113.592 51.28 111.572 52.88 109.212 54.04C106.852 55.2 104.232 55.78 101.352 55.78ZM103.452 49.06C105.452 49.06 107.412 48.6 109.332 47.68C111.292 46.76 112.892 45.3 114.132 43.3C115.412 41.26 116.052 38.62 116.052 35.38C116.052 32.34 115.472 29.92 114.312 28.12C113.152 26.28 111.672 24.96 109.872 24.16C108.112 23.32 106.252 22.9 104.292 22.9C102.812 22.9 101.472 23.1 100.272 23.5C99.1116 23.86 98.0716 24.26 97.1516 24.7C96.1116 26.3 95.1316 28.26 94.2116 30.58C93.2916 32.86 92.8316 35.28 92.8316 37.84C92.8316 40.4 93.3316 42.52 94.3316 44.2C95.3316 45.84 96.6316 47.06 98.2316 47.86C99.8716 48.66 101.612 49.06 103.452 49.06ZM139.556 55.78C135.356 55.78 132.216 54.68 130.136 52.48C128.056 50.24 127.016 46.74 127.016 41.98C127.016 41.18 127.036 40.34 127.076 39.46C127.156 38.58 127.236 37.72 127.316 36.88C127.396 36.08 127.456 35.28 127.496 34.48C127.536 33.68 127.556 32.96 127.556 32.32C127.556 29.92 127.456 27.84 127.256 26.08C127.056 24.32 126.456 22.64 125.456 21.04C125.136 20.52 124.976 20.1 124.976 19.78C124.976 19.26 125.256 18.76 125.816 18.28C126.416 17.76 127.116 17.32 127.916 16.96C128.716 16.6 129.476 16.42 130.196 16.42C131.156 16.42 131.836 16.74 132.236 17.38C132.676 18.02 132.956 18.82 133.076 19.78C133.196 20.7 133.256 21.64 133.256 22.6C133.256 23.6 133.196 24.7 133.076 25.9C132.996 27.1 132.856 28.4 132.656 29.8C132.496 31.32 132.336 32.92 132.176 34.6C132.056 36.24 131.996 37.9 131.996 39.58C131.996 41.9 132.396 43.76 133.196 45.16C134.036 46.52 135.156 47.52 136.556 48.16C137.996 48.76 139.596 49.06 141.356 49.06C144.436 49.06 146.756 48.28 148.316 46.72C149.876 45.12 150.956 43.04 151.556 40.48C151.836 39.32 152.056 38 152.216 36.52C152.376 35 152.456 33.46 152.456 31.9C152.456 29.94 152.316 28.06 152.036 26.26C151.796 24.46 151.296 22.88 150.536 21.52C150.376 21.2 150.236 20.92 150.116 20.68C149.996 20.44 149.936 20.18 149.936 19.9C149.936 19.34 150.176 18.8 150.656 18.28C151.136 17.72 151.736 17.28 152.456 16.96C153.176 16.6 153.916 16.42 154.676 16.42C155.956 16.42 156.816 16.96 157.256 18.04C157.696 19.12 157.916 20.38 157.916 21.82C157.916 22.7 157.836 23.98 157.676 25.66C157.556 27.34 157.376 29.14 157.136 31.06C156.896 32.98 156.656 34.8 156.416 36.52C156.176 38.2 155.956 39.5 155.756 40.42C154.756 45.18 152.996 48.94 150.476 51.7C147.956 54.42 144.316 55.78 139.556 55.78ZM177.6 55.78C174.84 55.78 172.36 55.16 170.16 53.92C167.96 52.68 166.22 50.88 164.94 48.52C163.66 46.16 163.02 43.3 163.02 39.94C163.02 36.9 163.52 33.98 164.52 31.18C165.56 28.34 167.02 25.8 168.9 23.56C170.78 21.28 173.06 19.48 175.74 18.16C178.42 16.84 181.4 16.18 184.68 16.18C187.08 16.18 189.08 16.56 190.68 17.32C192.28 18.08 193.08 19.2 193.08 20.68C193.08 21.4 192.88 22.12 192.48 22.84C192.12 23.52 191.64 24.1 191.04 24.58C190.44 25.06 189.82 25.3 189.18 25.3C188.78 25.3 188.46 25.2 188.22 25C186.14 23.6 183.78 22.9 181.14 22.9C178.34 22.9 175.98 23.56 174.06 24.88C172.14 26.16 170.68 27.86 169.68 29.98C168.72 32.1 168.24 34.4 168.24 36.88C168.24 40.6 169.28 43.56 171.36 45.76C173.48 47.96 176.3 49.06 179.82 49.06C181.34 49.06 182.76 48.84 184.08 48.4C185.4 47.96 186.48 47.32 187.32 46.48C188.16 45.64 188.58 44.62 188.58 43.42C188.58 42.22 188.22 41.3 187.5 40.66C186.78 40.02 185.84 39.56 184.68 39.28C183.52 38.96 182.26 38.76 180.9 38.68C179.94 38.6 179.22 38.48 178.74 38.32C178.3 38.16 178.08 37.68 178.08 36.88C178.08 35.92 178.38 35.12 178.98 34.48C179.58 33.84 180.32 33.48 181.2 33.4C182.4 33.28 183.84 33.2 185.52 33.16C187.2 33.08 188.94 33.04 190.74 33.04C192.58 33 194.3 32.98 195.9 32.98C196.42 32.98 196.82 33.08 197.1 33.28C197.38 33.44 197.52 33.8 197.52 34.36C197.52 35.04 197.36 35.78 197.04 36.58C196.76 37.38 196.36 38.06 195.84 38.62C195.32 39.18 194.72 39.46 194.04 39.46H193.08C193.2 39.86 193.3 40.32 193.38 40.84C193.5 41.32 193.56 41.88 193.56 42.52C193.56 44.28 193.14 45.96 192.3 47.56C191.46 49.12 190.3 50.52 188.82 51.76C187.34 53 185.64 53.98 183.72 54.7C181.8 55.42 179.76 55.78 177.6 55.78ZM229.598 55.66C228.358 55.66 227.298 55.14 226.418 54.1C225.578 53.02 224.758 51.26 223.958 48.82C223.558 47.62 223.218 46.46 222.938 45.34C222.698 44.18 222.518 43.06 222.398 41.98C221.878 42.78 221.398 43.32 220.958 43.6C220.558 43.84 219.958 43.96 219.158 43.96C217.198 43.96 215.118 43.94 212.918 43.9C210.718 43.82 208.758 43.76 207.038 43.72C206.958 44.44 206.878 45.18 206.798 45.94C206.758 46.66 206.738 47.38 206.738 48.1C206.738 48.74 206.758 49.38 206.798 50.02C206.878 50.66 206.938 51.28 206.978 51.88C207.098 53 206.658 53.9 205.658 54.58C204.658 55.26 203.418 55.6 201.938 55.6C200.658 55.6 200.018 55.04 200.018 53.92C200.018 53.24 200.198 52.22 200.558 50.86C200.758 49.94 200.918 49.16 201.038 48.52C201.158 47.84 201.218 47.3 201.218 46.9C201.218 45.78 200.878 45.02 200.198 44.62C199.638 44.3 199.358 43.88 199.358 43.36C199.358 42.88 199.458 42.3 199.658 41.62C199.898 40.94 200.198 40.32 200.558 39.76C200.918 39.16 201.258 38.74 201.578 38.5C201.858 38.34 202.198 38.2 202.598 38.08C202.998 37.96 203.498 37.88 204.098 37.84C205.658 33.36 207.398 29.5 209.318 26.26C211.278 22.98 213.358 20.46 215.558 18.7C217.758 16.9 219.998 16 222.278 16C223.678 16 224.698 16.48 225.338 17.44C225.978 18.36 226.298 19.92 226.298 22.12V24.82C226.298 28.86 226.598 32.58 227.198 35.98C227.798 39.38 228.538 42.14 229.418 44.26C230.298 46.5 231.518 48.34 233.078 49.78C233.558 50.18 233.878 50.54 234.038 50.86C234.198 51.14 234.278 51.44 234.278 51.76C234.278 52.36 234.038 52.96 233.558 53.56C233.118 54.16 232.538 54.66 231.818 55.06C231.098 55.46 230.358 55.66 229.598 55.66ZM208.838 37.48C210.798 37.4 212.518 37.34 213.998 37.3C215.478 37.22 216.718 37.18 217.718 37.18H221.918C221.838 36.06 221.758 34.88 221.678 33.64C221.638 32.4 221.618 31.1 221.618 29.74V26.26C221.618 25.1 221.478 24.34 221.198 23.98C220.958 23.58 220.478 23.38 219.758 23.38C217.798 23.38 215.838 24.66 213.878 27.22C211.918 29.78 210.238 33.2 208.838 37.48ZM240.616 55.6C239.736 55.6 238.976 55.38 238.336 54.94C237.736 54.46 237.436 53.36 237.436 51.64C237.436 50.76 237.516 49.7 237.676 48.46C237.876 47.18 238.076 45.86 238.276 44.5C238.596 42.58 238.916 40.48 239.236 38.2C239.556 35.88 239.716 33.58 239.716 31.3C239.716 28.9 239.636 27.06 239.476 25.78C239.316 24.5 239.136 23.46 238.936 22.66C238.856 22.22 238.776 21.82 238.696 21.46C238.656 21.1 238.636 20.7 238.636 20.26C238.636 18.98 239.036 18.02 239.836 17.38C240.676 16.7 241.596 16.36 242.596 16.36C243.596 16.36 244.436 16.62 245.116 17.14C245.796 17.62 246.396 18.14 246.916 18.7C250.356 22.58 253.456 26.66 256.216 30.94C258.976 35.18 261.276 39.54 263.116 44.02C263.316 44.34 263.496 44.5 263.656 44.5C263.896 44.5 264.056 44.34 264.136 44.02C264.856 39.34 265.216 35.1 265.216 31.3C265.216 29.02 265.116 27.22 264.916 25.9C264.756 24.54 264.536 23.5 264.256 22.78C264.016 22.02 263.776 21.42 263.536 20.98C263.416 20.7 263.316 20.46 263.236 20.26C263.156 20.02 263.116 19.8 263.116 19.6C263.116 19.12 263.356 18.64 263.836 18.16C264.356 17.64 264.976 17.22 265.696 16.9C266.416 16.58 267.116 16.42 267.796 16.42C268.756 16.42 269.456 16.74 269.896 17.38C270.336 18.02 270.616 18.82 270.736 19.78C270.896 20.7 270.976 21.64 270.976 22.6C270.976 23.68 270.876 25.08 270.676 26.8C270.476 28.52 270.236 30.38 269.956 32.38C269.716 34.34 269.496 36.28 269.296 38.2C269.136 40.12 269.056 41.82 269.056 43.3C269.056 44.14 269.076 44.96 269.116 45.76C269.196 46.56 269.276 47.34 269.356 48.1C269.476 49.1 269.536 49.98 269.536 50.74C269.536 52.22 269.156 53.4 268.396 54.28C267.676 55.12 266.676 55.54 265.396 55.54C264.516 55.54 263.636 55.28 262.756 54.76C261.916 54.24 261.276 53.4 260.836 52.24C259.116 47.84 256.996 43.56 254.476 39.4C251.996 35.2 249.396 31.58 246.676 28.54C246.236 28.14 245.876 27.94 245.596 27.94C245.196 27.94 244.936 28.38 244.816 29.26C244.616 30.78 244.416 32.44 244.216 34.24C244.016 36.04 243.856 37.8 243.736 39.52C243.616 41.2 243.556 42.64 243.556 43.84C243.556 45.2 243.676 46.38 243.916 47.38C244.156 48.34 244.516 49.28 244.996 50.2C245.436 51 245.656 51.72 245.656 52.36C245.656 53.12 245.216 53.86 244.336 54.58C243.456 55.26 242.216 55.6 240.616 55.6ZM304.422 55.66C303.182 55.66 302.122 55.14 301.242 54.1C300.402 53.02 299.582 51.26 298.782 48.82C298.382 47.62 298.042 46.46 297.762 45.34C297.522 44.18 297.342 43.06 297.222 41.98C296.702 42.78 296.222 43.32 295.782 43.6C295.382 43.84 294.782 43.96 293.982 43.96C292.022 43.96 289.942 43.94 287.742 43.9C285.542 43.82 283.582 43.76 281.862 43.72C281.782 44.44 281.702 45.18 281.622 45.94C281.582 46.66 281.562 47.38 281.562 48.1C281.562 48.74 281.582 49.38 281.622 50.02C281.702 50.66 281.762 51.28 281.802 51.88C281.922 53 281.482 53.9 280.482 54.58C279.482 55.26 278.242 55.6 276.762 55.6C275.482 55.6 274.842 55.04 274.842 53.92C274.842 53.24 275.022 52.22 275.382 50.86C275.582 49.94 275.742 49.16 275.862 48.52C275.982 47.84 276.042 47.3 276.042 46.9C276.042 45.78 275.702 45.02 275.022 44.62C274.462 44.3 274.182 43.88 274.182 43.36C274.182 42.88 274.282 42.3 274.482 41.62C274.722 40.94 275.022 40.32 275.382 39.76C275.742 39.16 276.082 38.74 276.402 38.5C276.682 38.34 277.022 38.2 277.422 38.08C277.822 37.96 278.322 37.88 278.922 37.84C280.482 33.36 282.222 29.5 284.142 26.26C286.102 22.98 288.182 20.46 290.382 18.7C292.582 16.9 294.822 16 297.102 16C298.502 16 299.522 16.48 300.162 17.44C300.802 18.36 301.122 19.92 301.122 22.12V24.82C301.122 28.86 301.422 32.58 302.022 35.98C302.622 39.38 303.362 42.14 304.242 44.26C305.122 46.5 306.342 48.34 307.902 49.78C308.382 50.18 308.702 50.54 308.862 50.86C309.022 51.14 309.102 51.44 309.102 51.76C309.102 52.36 308.862 52.96 308.382 53.56C307.942 54.16 307.362 54.66 306.642 55.06C305.922 55.46 305.182 55.66 304.422 55.66ZM283.662 37.48C285.622 37.4 287.342 37.34 288.822 37.3C290.302 37.22 291.542 37.18 292.542 37.18H296.742C296.662 36.06 296.582 34.88 296.502 33.64C296.462 32.4 296.442 31.1 296.442 29.74V26.26C296.442 25.1 296.302 24.34 296.022 23.98C295.782 23.58 295.302 23.38 294.582 23.38C292.622 23.38 290.662 24.66 288.702 27.22C286.742 29.78 285.062 33.2 283.662 37.48ZM316.58 55.6C315.62 55.6 314.84 55.34 314.24 54.82C313.64 54.3 313.34 53.24 313.34 51.64C313.34 50.84 313.42 49.8 313.58 48.52C313.74 47.24 313.9 45.96 314.06 44.68C314.5 41.84 314.82 39.38 315.02 37.3C315.22 35.22 315.32 33.1 315.32 30.94C315.32 28.94 315.2 27.08 314.96 25.36C314.76 23.64 314.22 22.16 313.34 20.92C313.02 20.4 312.86 20 312.86 19.72C312.86 19.24 313.12 18.74 313.64 18.22C314.2 17.66 314.86 17.2 315.62 16.84C316.42 16.48 317.16 16.3 317.84 16.3C319.08 16.3 319.9 16.86 320.3 17.98C320.74 19.06 320.96 20.42 320.96 22.06C320.96 23.06 320.9 24.3 320.78 25.78C320.66 27.26 320.52 28.7 320.36 30.1C320.24 31.46 320.12 32.52 320 33.28C319.72 35.4 319.5 37.38 319.34 39.22C319.18 41.06 319.1 42.62 319.1 43.9C319.1 45.42 319.24 46.7 319.52 47.74C319.84 48.78 320.38 49.64 321.14 50.32C321.66 50.8 321.92 51.34 321.92 51.94C321.92 52.9 321.42 53.76 320.42 54.52C319.46 55.24 318.18 55.6 316.58 55.6Z" fill="#FF0000"/>
<path d="M3 68C4.14623 56.75 52.3675 68 84 68" stroke="#FF0000" stroke-width="4"/>
<path d="M81 74C79.8538 85.25 31.6325 74 2.20276e-06 74" stroke="#FF0000" stroke-width="4"/>
</svg>
